:SAMPLES-PER-SECOND 30
:FULLY-SPECIFIED
:DEGREES
676
root  4.88407 34.321 -15.4713 -174.603 36.0115 179.571
LeftUpLeg  -9.22182 -1.39145 2.59557
LeftLeg  10.8833 -11.7552 -1.47587
LeftFoot  1.95703 0.00603721 -0.353477
LeftToes  -18.9612 7.65994e-007 1.12379e-007
Spine  4.72426 2.06266 -0.986406
Spine1  8.73299 4.34034 -1.80391
RightShoulder  0.0764474 6.08417 -13.1667
RightArm  13.0785 19.8275 95.6041
RightForeArm  140.933 56.0555 164.445
RightHand  2.1765 -10.1732 -23.7087
LeftShoulder1  0.0625237 6.60784 0.526423
LeftArm  8.31628 -17.5846 -76.8636
LeftForeArm  162.992 -47.2345 -168.639
LeftHand  -0.488425 -1.59562 33.8062
HEad  23.5358 11.7721 -1.54534
RightUpLeg  -11.8234 -10.4318 -2.77219
RightLeg  10.9729 3.2262 0.413867
RightFoot  5.1429 -0.00408286 0.371805
RightToes  -31.7875 -0.156422 -0.264196
677
root  5.08978 34.3231 -15.3735 -174.267 35.7383 179.614
LeftUpLeg  -9.37881 -1.34361 3.02744
LeftLeg  10.611 -12.057 -1.4554
LeftFoot  2.17736 0.00852851 -0.414171
LeftToes  -19.6609 7.65994e-007 1.12379e-007
Spine  4.78793 2.08342 -0.869903
Spine1  8.85892 4.34803 -1.53757
RightShoulder  0.0758504 5.75125 -13.3399
RightArm  12.3186 19.8134 95.2893
RightForeArm  141.831 55.9829 164.485
RightHand  2.13551 -10.2819 -23.0237
LeftShoulder1  0.0633558 6.21719 0.503446
LeftArm  6.85933 -18.0497 -76.1377
LeftForeArm  163.14 -47.2596 -168.629
LeftHand  -0.467375 -1.53238 33.6959
HEad  23.3909 11.6049 -1.66511
RightUpLeg  -12.0308 -10.9775 -2.28616
RightLeg  10.9871 3.50073 0.449828
RightFoot  4.81981 -0.00437927 0.375066
RightToes  -31.2039 -0.152298 -0.260246
678
root  5.27919 34.323 -15.2684 -173.722 35.5121 179.829
LeftUpLeg  -9.74514 -1.39274 3.58862
LeftLeg  10.5063 -12.1745 -1.44696
LeftFoot  2.28799 0.00925784 -0.44729
LeftToes  -20.2287 7.65994e-007 1.12379e-007
Spine  4.8362 2.11827 -0.663778
Spine1  8.96738 4.36435 -1.08017
RightShoulder  0.0754255 5.42936 -13.6063
RightArm  11.735 20.0064 94.8029
RightForeArm  142.377 55.8477 164.563
RightHand  2.13043 -10.255 -23.0294
LeftShoulder1  0.0657886 5.57476 0.514796
LeftArm  5.33463 -18.5204 -75.5903
LeftForeArm  163.509 -47.1293 -168.68
LeftHand  -0.484819 -1.54819 34.5503
HEad  23.1139 11.0826 -1.96339
RightUpLeg  -12.3378 -11.2657 -1.65148
RightLeg  10.8959 3.5581 0.451432
RightFoot  4.59576 -0.00356821 0.361042
RightToes  -30.4769 -0.147219 -0.256601
679
root  5.45026 34.3178 -15.1629 -173.569 35.2884 179.793
LeftUpLeg  -9.9187 -1.64012 3.92319
LeftLeg  10.4653 -12.1404 -1.43422
LeftFoot  2.4363 0.00991609 -0.478884
LeftToes  -20.8093 7.65994e-007 1.12379e-007
Spine  4.98681 2.12562 -0.578457
Spine1  9.22372 4.33074 -0.841581
RightShoulder  0.0747313 5.17824 -13.4982
RightArm  11.415 20.2034 94.3924
RightForeArm  143.157 56.0446 164.445
RightHand  2.09091 -10.0318 -23.1064
LeftShoulder1  0.0735291 5.15594 0.466485
LeftArm  3.60701 -19.4696 -75.2101
LeftForeArm  164.342 -47.2623 -168.627
LeftHand  -0.522081 -1.59683 35.9847
HEad  23.235 10.4256 -2.05237
RightUpLeg  -12.534 -11.4473 -1.29089
RightLeg  11.0665 3.47068 0.450859
RightFoot  4.26972 -0.00197099 0.334708
RightToes  -30.1112 -0.143461 -0.252738
680
root  5.61399 34.3144 -15.0602 -173.197 35.0359 179.899
LeftUpLeg  -10.1584 -1.94257 4.35617
LeftLeg  10.2542 -12.0114 -1.37469
LeftFoot  2.63133 0.0110872 -0.5178
LeftToes  -21.4499 7.65994e-007 1.12379e-007
Spine  5.13779 2.11243 -0.418702
Spine1  9.50574 4.23453 -0.442445
RightShoulder  0.0743115 4.76024 -13.5419
RightArm  11.2036 20.3122 94.206
RightForeArm  143.378 56.0933 164.415
RightHand  2.10145 -10.0637 -23.1484
LeftShoulder1  0.0796648 4.8119 0.374523
LeftArm  1.22916 -20.9714 -75.0806
LeftForeArm  164.868 -47.2471 -168.632
LeftHand  -0.623172 -1.81186 37.7223
HEad  22.9959 9.83575 -2.47249
RightUpLeg  -12.8578 -11.6968 -0.794023
RightLeg  11.1787 3.4815 0.459175
RightFoot  4.00543 -0.000897138 0.31638
RightToes  -29.4203 -0.13995 -0.247917
681
root  5.76953 34.3124 -14.9628 -172.815 34.7667 179.941
LeftUpLeg  -10.4394 -2.23052 4.72652
LeftLeg  10.0142 -11.9012 -1.31215
LeftFoot  2.85859 0.0127422 -0.563361
LeftToes  -22.0507 7.65994e-007 1.12379e-007
Spine  5.26801 2.07611 -0.262919
Spine1  9.74587 4.07502 -0.0254082
RightShoulder  0.0739985 4.43194 -13.6501
RightArm  11.2838 20.2002 93.9153
RightForeArm  142.871 56.0258 164.457
RightHand  2.12112 -10.0397 -23.4178
LeftShoulder1  0.0863083 4.47493 0.177407
LeftArm  -2.44756 -23.2313 -74.6478
LeftForeArm  165.233 -47.2204 -168.642
LeftHand  -0.607832 -1.74999 38.0758
HEad  22.9919 9.33908 -2.99671
RightUpLeg  -13.2248 -11.905 -0.352738
RightLeg  11.3009 3.3833 0.453596
RightFoot  3.76778 0.000561136 0.291954
RightToes  -28.8167 -0.135858 -0.243658
682
root  5.92014 34.3123 -14.8711 -172.555 34.433 179.959
LeftUpLeg  -10.6916 -2.4521 5.0688
LeftLeg  9.91054 -11.9277 -1.29335
LeftFoot  3.0757 0.0148159 -0.614326
LeftToes  -22.5846 7.65994e-007 1.12379e-007
Spine  5.43531 2.01147 -0.161607
Spine1  10.0528 3.84182 0.317399
RightShoulder  0.0736696 4.18507 -13.6808
RightArm  11.7026 19.9693 93.5201
RightForeArm  142.049 55.9022 164.532
RightHand  2.19513 -9.98629 -24.3512
LeftShoulder1  0.093987 4.13736 0.172893
LeftArm  -7.47498 -26.5476 -73.8498
LeftForeArm  164.869 -47.3358 -168.597
LeftHand  -0.616306 -1.75509 38.4665
HEad  23.3679 8.60679 -3.42372
RightUpLeg  -13.3795 -11.9723 0.0125487
RightLeg  11.2015 3.19132 0.422323
RightFoot  3.59025 0.00219356 0.26468
RightToes  -28.1251 -0.131158 -0.238726
683
root  6.06581 34.3147 -14.766 -172.068 34.0825 -179.828
LeftUpLeg  -11.1707 -2.51882 5.5899
LeftLeg  9.98717 -12.121 -1.33025
LeftFoot  3.20923 0.0165382 -0.658499
LeftToes  -23.2345 7.65994e-007 1.12379e-007
Spine  5.50147 1.93193 0.0240749
Spine1  10.1691 3.57137 0.821148
RightShoulder  0.0734732 3.87866 -13.759
RightArm  12.3306 19.4662 93.2842
RightForeArm  140.981 55.6064 164.708
RightHand  2.32371 -10.1807 -25.2671
LeftShoulder1  0.100001 3.98953 0.181807
LeftArm  -12.9454 -30.6241 -72.7422
LeftForeArm  162.883 -47.0965 -168.693
LeftHand  -0.402614 -1.13051 39.0562
HEad  24.0366 7.5568 -4.1367
RightUpLeg  -13.6423 -11.8311 0.577606
RightLeg  11.0367 2.67828 0.346849
RightFoot  3.52147 0.00475458 0.222835
RightToes  -27.4115 -0.126508 -0.233579
684
root  6.20426 34.3172 -14.6718 -171.999 33.8701 -179.913
LeftUpLeg  -11.2664 -2.70855 5.8242
LeftLeg  9.83464 -12.0981 -1.29543
LeftFoot  3.4557 0.0187591 -0.708865
LeftToes  -23.7079 7.65994e-007 1.12379e-007
Spine  5.67616 1.9044 0.0487667
Spine1  10.4642 3.42883 1.0172
RightShoulder  0.0731599 3.88592 -13.7169
RightArm  12.3565 18.7747 92.9162
RightForeArm  139.984 55.2825 164.896
RightHand  2.40241 -10.3602 -25.6604
LeftShoulder1  0.108524 3.7201 0.554478
LeftArm  -19.2997 -35.2227 -70.6618
LeftForeArm  160.569 -46.8967 -168.774
LeftHand  -0.00194408 -0.0125723 37.4261
HEad  24.7638 6.40384 -4.85025
RightUpLeg  -13.7245 -12.0596 0.836162
RightLeg  10.9916 2.73251 0.351663
RightFoot  3.38383 0.00464094 0.221436
RightToes  -26.8154 -0.122618 -0.229235
